# xmcd
#
# Track frame offsets:
#	150
#	16906
#	38083
#	57162
#	73138
#	103353
#	125857
#	150609
#	170638
#	191410
#
# Disc length: 2834
#
# Revision: 1
# Processed by: cddbd v1.5.1PL0 Copyright (c) Steve Scherf et al.
# Submitted via: EasyCDDAExtractor 5.0.5.1
# Normalized: r0:DSETVAR1
#
DISCID=8c0b100a
DTITLE=Various Artist - No 1R&B Hits Cd2
DYEAR=2003
DGENRE=R&B
TTITLE0=Jodeci - Cry For You
TTITLE1=Tony!Toni!Tone! - Oakland Stroke
TTITLE2=Zhane - Hey Mr D.j.
TTITLE3=Soul For Real - Candy Rain
TTITLE4=J.T. Taylor - Long Hot Summer Night
TTITLE5=Father MC - Lisa Baby
TTITLE6=Jeff Redd - I Found Lovin
TTITLE7=Father MC - 69
TTITLE8=Today - I Got The Feeling
TTITLE9=Jhonny Gill - Wrap My Body Tight
EXTD=
EXTT0=
EXTT1=
EXTT2=
EXTT3=
EXTT4=
EXTT5=
EXTT6=
EXTT7=
EXTT8=
EXTT9=
PLAYORDER=
